<svg id="svg" version="1.1" xmlns="http://www.w3.org/2000/svg" xmlns:xlink="http://www.w3.org/1999/xlink" width="400" height="273.84615384615387" viewBox="0, 0, 400,273.84615384615387"><g id="svgg"><path id="path0" d="M64.073 1.750 C 55.560 6.697,1.538 101.448,1.538 111.432 C 1.538 120.180,2.046 120.682,33.101 142.635 L 50.049 154.615 47.939 161.204 C 43.036 176.521,53.235 190.769,69.101 190.769 C 73.558 190.769,73.640 190.902,72.027 195.528 C 67.734 207.844,78.845 221.538,93.130 221.538 L 101.538 221.538 101.544 226.538 C 101.558 238.392,112.961 247.234,126.212 245.665 L 133.483 244.803 134.430 250.723 C 136.846 265.837,159.551 271.172,170.745 259.257 C 175.720 253.961,176.918 254.228,189.611 263.462 C 207.717 276.633,230.093 275.731,238.167 261.504 C 239.928 258.401,241.515 257.248,243.077 257.939 C 257.767 264.436,274.750 255.121,276.502 239.606 L 277.239 233.077 284.812 232.964 C 296.971 232.782,307.609 221.701,307.667 209.155 C 307.691 203.906,307.886 203.717,312.692 204.271 C 323.828 205.555,334.599 193.596,334.649 179.893 C 334.677 171.947,335.169 170.447,338.495 168.158 C 345.639 163.242,388.441 128.800,394.231 123.309 C 403.158 114.842,403.036 114.489,372.141 59.545 C 335.548 -5.531,342.491 -0.601,314.284 18.462 C 287.779 36.373,289.425 36.336,254.947 19.790 C 224.165 5.017,221.834 4.689,205.668 12.856 L 194.615 18.439 186.923 16.035 C 177.426 13.067,168.503 13.967,156.154 19.138 C 147.859 22.612,144.818 23.007,126.154 23.036 L 105.385 23.069 96.923 17.939 C 92.269 15.118,84.366 9.928,79.360 6.405 C 69.611 -0.456,68.468 -0.804,64.073 1.750 M80.769 21.240 C 98.053 33.929,99.479 34.352,125.385 34.491 C 148.277 34.614,148.562 34.574,161.071 29.369 C 171.588 24.994,174.504 24.359,178.639 25.545 L 183.597 26.967 168.363 36.945 C 151.131 48.231,144.511 55.819,140.821 68.512 C 139.448 73.236,136.140 80.650,133.470 84.988 C 116.871 111.966,138.528 133.396,168.845 119.990 C 178.340 115.791,183.759 110.477,189.483 99.749 C 198.800 82.289,210.559 78.399,223.701 88.431 C 234.906 96.983,322.141 169.606,323.438 171.460 C 328.265 178.364,321.229 192.600,312.086 194.429 C 306.089 195.628,307.269 196.384,271.435 168.401 C 242.310 145.657,240.242 144.462,236.929 148.454 C 233.767 152.264,237.645 156.168,268.264 179.997 C 299.426 204.250,300.925 206.308,294.540 216.052 C 286.923 227.678,281.055 225.698,249.118 200.725 C 221.503 179.132,216.548 176.738,215.778 184.615 C 215.455 187.918,218.988 191.254,240.778 208.223 C 254.735 219.092,266.230 229.130,266.324 230.531 C 267.372 246.198,254.382 254.661,243.431 245.446 C 217.507 223.633,201.557 214.414,198.668 219.576 C 196.301 223.806,198.935 226.793,215.412 238.556 C 232.299 250.613,232.935 251.750,226.036 257.556 C 217.866 264.430,209.032 263.285,195.656 253.618 L 184.697 245.698 189.271 240.488 C 200.464 227.740,191.332 206.643,173.896 204.968 L 166.154 204.224 166.154 197.615 C 166.154 186.360,155.664 176.923,143.153 176.923 L 136.923 176.923 136.923 170.710 C 136.923 160.715,127.922 152.066,116.539 151.122 C 108.077 150.420,107.954 150.339,106.920 144.821 C 102.865 123.195,81.643 118.167,66.033 135.134 C 60.006 141.684,56.409 144.488,55.070 143.678 C 43.822 136.873,13.786 114.542,13.138 112.502 C 11.278 106.641,66.108 11.177,69.987 13.524 C 70.840 14.041,75.692 17.513,80.769 21.240 M250.156 30.306 C 286.980 48.138,289.915 48.047,320.534 28.114 C 328.902 22.667,336.240 18.786,336.841 19.489 C 337.678 20.471,360.272 61.028,388.697 112.576 C 389.300 113.671,331.345 160.000,329.371 160.000 C 328.740 160.000,308.200 143.338,283.727 122.972 C 220.279 70.174,223.328 72.308,211.325 72.308 C 194.972 72.308,188.956 76.562,179.971 94.476 C 172.443 109.486,152.827 117.271,142.692 109.270 C 137.033 104.803,137.285 100.089,143.751 89.463 C 146.661 84.681,150.162 76.819,151.533 71.992 C 154.850 60.308,159.599 55.938,191.384 35.324 C 222.642 15.051,219.251 15.341,250.156 30.306 M90.123 138.285 C 101.745 145.373,100.741 153.653,86.417 168.846 C 74.044 181.970,69.182 183.265,61.420 175.503 C 53.243 167.325,56.485 158.553,73.546 142.692 C 82.361 134.498,83.440 134.211,90.123 138.285 M121.113 164.573 C 131.704 171.031,130.171 177.656,113.846 195.969 C 98.836 212.807,93.658 214.777,85.594 206.713 C 77.637 198.756,79.469 192.611,94.765 175.947 C 109.283 160.131,111.944 158.983,121.113 164.573 M152.426 192.189 C 160.498 200.261,159.084 204.847,143.462 221.269 C 127.886 237.640,123.511 239.132,115.266 230.888 C 107.026 222.647,108.539 217.591,124.065 201.485 C 139.517 185.456,144.169 183.932,152.426 192.189 M179.301 219.161 C 185.856 225.716,184.475 230.286,171.923 243.581 C 156.935 259.455,143.077 259.079,143.077 242.798 C 143.077 228.401,170.588 210.448,179.301 219.161 " stroke="none" fill="#0E2E5A" fill-rule="evenodd"></path></g></svg>