<svg id="svg" version="1.1" xmlns="http://www.w3.org/2000/svg" xmlns:xlink="http://www.w3.org/1999/xlink" width="400" height="294.8207171314741" viewBox="0, 0, 400,294.8207171314741"><g id="svgg"><path id="path0" d="M35.103 1.225 C 19.622 1.428,17.025 1.609,15.172 2.614 C 14.534 2.960,13.547 3.450,12.979 3.702 C 10.827 4.660,10.012 5.285,7.399 7.987 C 3.757 11.752,3.814 11.677,3.375 13.340 C 3.162 14.148,2.768 15.051,2.500 15.347 C 1.972 15.930,1.629 18.003,1.184 23.304 C 1.009 25.387,0.896 61.037,0.892 115.708 C 0.886 194.630,0.835 204.720,0.442 204.720 C -0.170 204.720,-0.114 205.237,0.516 205.401 C 1.008 205.530,1.008 205.538,0.516 205.571 C -0.112 205.612,-0.181 206.195,0.442 206.195 C 0.794 206.195,0.885 206.621,0.885 208.260 C 0.885 209.898,0.794 210.324,0.442 210.324 C 0.077 210.324,0.000 210.865,0.000 213.422 C 0.000 215.978,0.077 216.519,0.442 216.519 C 0.829 216.519,0.885 218.240,0.885 230.236 C 0.885 242.232,0.829 243.953,0.442 243.953 C 0.108 243.953,0.000 244.313,0.000 245.428 C 0.000 246.542,0.108 246.903,0.442 246.903 C 1.149 246.903,1.079 250.939,0.369 251.124 C -0.123 251.253,-0.123 251.261,0.369 251.293 C 1.102 251.342,1.175 267.552,0.442 267.552 C 0.088 267.552,0.000 267.994,0.000 269.764 C 0.000 271.534,0.088 271.976,0.442 271.976 C 0.686 271.976,0.885 272.121,0.885 272.298 C 0.885 273.828,2.216 279.893,2.682 280.485 C 2.992 280.878,3.247 281.415,3.249 281.677 C 3.254 282.237,3.590 282.848,5.093 285.036 C 7.308 288.260,8.641 289.539,11.910 291.577 C 12.417 291.893,12.932 292.314,13.055 292.513 C 13.178 292.712,13.708 292.960,14.235 293.066 C 16.351 293.490,17.109 293.846,17.109 294.418 C 17.109 294.977,19.769 294.985,200.295 294.985 C 365.609 294.985,383.481 294.941,383.481 294.528 C 383.481 294.047,385.132 293.215,386.086 293.215 C 386.393 293.215,387.146 292.817,387.758 292.330 C 388.371 291.844,389.005 291.445,389.169 291.445 C 389.332 291.445,389.745 291.177,390.087 290.849 C 390.429 290.520,391.578 289.415,392.642 288.393 C 394.672 286.442,395.460 285.376,396.496 283.186 C 396.841 282.456,397.304 281.650,397.527 281.395 C 397.749 281.141,398.062 280.212,398.222 279.331 C 398.726 276.567,399.176 275.221,399.596 275.221 C 400.341 275.221,400.183 20.176,399.438 19.981 C 399.007 19.868,398.756 19.292,398.363 17.513 C 398.081 16.236,397.613 14.887,397.323 14.514 C 397.033 14.142,396.703 13.411,396.590 12.892 C 396.477 12.372,396.138 11.681,395.836 11.357 C 391.260 6.431,388.340 3.957,386.431 3.386 C 386.025 3.265,385.096 2.864,384.366 2.495 C 383.420 2.018,382.049 1.723,379.602 1.470 C 375.818 1.080,63.038 0.857,35.103 1.225 M116.265 13.035 C 116.637 13.622,116.587 76.903,116.214 77.601 C 115.810 78.356,13.339 78.517,12.713 77.764 C 12.463 77.462,12.396 69.962,12.456 48.876 L 12.537 20.397 13.203 19.564 C 13.570 19.106,13.988 18.466,14.133 18.142 C 14.502 17.315,17.538 14.510,18.512 14.095 C 18.957 13.905,19.567 13.544,19.868 13.292 C 20.168 13.040,21.163 12.750,22.080 12.647 C 25.636 12.249,116.002 12.620,116.265 13.035 M379.101 12.928 C 379.532 13.099,379.964 13.369,380.063 13.528 C 380.162 13.688,380.647 13.908,381.142 14.016 C 382.086 14.224,385.841 17.587,385.841 18.225 C 385.841 18.423,386.124 18.868,386.471 19.214 C 386.817 19.561,387.212 20.324,387.349 20.910 C 387.854 23.083,387.667 76.780,387.151 77.515 L 386.692 78.171 257.833 78.171 C 135.548 78.171,128.942 78.145,128.340 77.655 L 127.706 77.139 127.722 45.305 C 127.740 9.982,127.544 12.756,130.039 12.625 C 135.181 12.355,378.401 12.651,379.101 12.928 M116.165 89.440 C 116.600 89.874,116.687 197.161,116.253 198.301 L 115.987 199.000 64.591 198.980 L 13.194 198.960 12.793 198.356 C 12.106 197.321,12.196 89.960,12.885 89.454 C 13.604 88.926,115.637 88.912,116.165 89.440 M265.192 89.467 L 265.929 89.840 265.880 143.926 C 265.836 192.063,265.781 198.062,265.379 198.464 C 264.976 198.867,257.587 198.919,196.992 198.942 L 129.056 198.968 128.208 198.143 C 127.479 197.433,127.386 197.165,127.541 196.225 C 127.641 195.624,127.724 171.416,127.725 142.429 L 127.729 89.725 128.540 89.428 C 129.851 88.950,264.244 88.988,265.192 89.467 M387.040 89.391 C 387.829 89.813,387.933 197.336,387.146 198.378 C 386.533 199.188,278.184 199.399,277.513 198.591 C 277.020 197.996,276.803 90.578,277.293 89.662 C 277.651 88.993,385.798 88.726,387.040 89.391 M116.277 210.695 C 116.641 211.269,116.579 282.522,116.214 283.205 C 115.875 283.839,24.497 284.115,22.124 283.490 C 18.938 282.650,17.885 282.088,16.035 280.240 C 15.003 279.209,14.159 278.252,14.159 278.114 C 14.159 277.976,13.794 277.312,13.348 276.638 L 12.537 275.412 12.458 243.063 C 12.379 210.748,12.380 210.714,12.981 210.446 C 13.983 209.999,115.991 210.245,116.277 210.695 M265.606 210.596 C 265.837 210.788,265.929 221.066,265.929 246.756 L 265.929 282.648 265.233 283.212 C 264.190 284.056,129.374 284.103,128.344 283.260 L 127.714 282.743 127.720 246.781 C 127.723 227.002,127.786 210.759,127.860 210.685 C 127.933 210.611,128.405 210.467,128.908 210.364 C 130.376 210.064,265.240 210.292,265.606 210.596 M387.250 210.572 C 387.665 210.836,387.788 273.329,387.377 275.074 C 387.070 276.376,385.638 278.631,384.325 279.879 C 382.210 281.891,381.930 282.086,380.596 282.488 C 379.865 282.708,379.067 283.054,378.822 283.258 C 378.037 283.909,278.086 283.942,277.546 283.291 C 277.000 282.634,276.777 211.381,277.319 210.728 C 277.699 210.269,386.530 210.116,387.250 210.572 " stroke="none" fill="#132b53" fill-rule="evenodd"></path><path id="path1" d="M26.549 0.402 C 26.549 0.696,25.730 0.889,23.525 1.115 L 20.501 1.426 23.156 1.288 C 24.617 1.212,105.059 1.123,201.917 1.091 C 298.776 1.059,377.128 0.993,376.032 0.945 C 374.527 0.879,374.041 0.753,374.041 0.429 C 374.041 -0.298,198.623 -0.211,198.433 0.516 C 198.305 1.008,198.297 1.008,198.264 0.516 C 198.215 -0.223,30.088 -0.297,30.088 0.442 C 30.088 0.686,29.889 0.885,29.646 0.885 C 29.403 0.885,29.204 0.686,29.204 0.442 C 29.204 0.115,28.859 0.000,27.876 0.000 C 26.952 0.000,26.549 0.122,26.549 0.402 M378.691 1.389 C 379.058 1.459,379.589 1.456,379.871 1.383 C 380.153 1.309,379.853 1.251,379.204 1.254 C 378.555 1.258,378.324 1.318,378.691 1.389 M6.743 8.186 C 5.895 9.210,5.535 9.735,5.681 9.735 C 5.763 9.735,6.184 9.270,6.617 8.702 C 7.421 7.648,7.518 7.251,6.743 8.186 M31.215 12.610 C 35.486 12.657,42.388 12.656,46.555 12.610 C 50.721 12.564,47.227 12.527,38.791 12.527 C 30.354 12.527,26.945 12.564,31.215 12.610 M62.035 12.609 C 63.463 12.663,65.719 12.663,67.050 12.609 C 68.380 12.554,67.212 12.510,64.454 12.510 C 61.696 12.510,60.608 12.555,62.035 12.609 M78.996 12.609 C 80.343 12.664,82.466 12.664,83.716 12.608 C 84.966 12.553,83.864 12.508,81.268 12.509 C 78.673 12.509,77.650 12.554,78.996 12.609 M87.979 12.593 C 88.263 12.667,88.728 12.667,89.012 12.593 C 89.296 12.519,89.063 12.458,88.496 12.458 C 87.928 12.458,87.695 12.519,87.979 12.593 M113.647 12.601 C 114.096 12.669,114.759 12.667,115.122 12.597 C 115.485 12.527,115.118 12.472,114.307 12.474 C 113.496 12.476,113.199 12.533,113.647 12.601 M132.368 12.602 C 132.892 12.667,133.821 12.669,134.433 12.605 C 135.045 12.541,134.617 12.487,133.481 12.486 C 132.345 12.485,131.844 12.537,132.368 12.602 M144.778 12.609 C 146.124 12.664,148.248 12.664,149.498 12.608 C 150.747 12.553,149.646 12.508,147.050 12.509 C 144.454 12.509,143.432 12.554,144.778 12.609 M153.918 12.607 C 154.776 12.667,156.103 12.666,156.868 12.606 C 157.634 12.545,156.932 12.496,155.310 12.497 C 153.687 12.498,153.061 12.547,153.918 12.607 M159.513 12.598 C 159.878 12.668,160.476 12.668,160.841 12.598 C 161.206 12.527,160.907 12.470,160.177 12.470 C 159.447 12.470,159.148 12.527,159.513 12.598 M169.994 12.607 C 170.770 12.668,171.964 12.667,172.649 12.605 C 173.334 12.543,172.699 12.493,171.239 12.494 C 169.779 12.495,169.219 12.546,169.994 12.607 M176.770 12.601 C 177.216 12.668,177.946 12.668,178.392 12.601 C 178.838 12.533,178.473 12.478,177.581 12.478 C 176.689 12.478,176.324 12.533,176.770 12.601 M191.372 12.603 C 191.899 12.668,192.762 12.668,193.289 12.603 C 193.816 12.537,193.385 12.484,192.330 12.484 C 191.276 12.484,190.844 12.537,191.372 12.603 M213.496 12.610 C 217.268 12.657,223.440 12.657,227.212 12.610 C 230.985 12.564,227.898 12.525,220.354 12.525 C 212.810 12.525,209.723 12.564,213.496 12.610 M242.703 12.598 C 243.069 12.669,243.600 12.666,243.882 12.592 C 244.165 12.518,243.864 12.460,243.215 12.464 C 242.566 12.467,242.336 12.527,242.703 12.598 M254.204 12.603 C 254.731 12.668,255.594 12.668,256.121 12.603 C 256.648 12.537,256.217 12.484,255.162 12.484 C 254.108 12.484,253.676 12.537,254.204 12.603 M260.988 12.610 C 262.813 12.661,265.800 12.661,267.625 12.610 C 269.451 12.558,267.957 12.515,264.307 12.515 C 260.656 12.515,259.163 12.558,260.988 12.610 M280.172 12.607 C 281.029 12.667,282.357 12.666,283.122 12.606 C 283.887 12.545,283.186 12.496,281.563 12.497 C 279.941 12.498,279.315 12.547,280.172 12.607 M285.914 12.606 C 286.685 12.667,287.946 12.667,288.717 12.606 C 289.487 12.545,288.857 12.496,287.316 12.496 C 285.774 12.496,285.144 12.545,285.914 12.606 M294.189 12.609 C 295.616 12.663,297.873 12.663,299.203 12.609 C 300.534 12.554,299.366 12.510,296.608 12.510 C 293.850 12.510,292.761 12.555,294.189 12.609 M304.068 12.608 C 305.088 12.666,306.681 12.665,307.607 12.607 C 308.534 12.549,307.699 12.501,305.752 12.502 C 303.805 12.503,303.047 12.550,304.068 12.608 M355.837 12.608 C 356.776 12.666,358.236 12.666,359.082 12.606 C 359.927 12.547,359.159 12.499,357.375 12.500 C 355.590 12.500,354.898 12.549,355.837 12.608 M128.038 13.109 C 127.845 13.343,127.742 13.907,127.811 14.363 C 127.929 15.149,127.937 15.142,127.979 14.224 C 128.012 13.519,128.204 13.183,128.687 12.989 C 129.136 12.808,129.196 12.716,128.871 12.703 C 128.607 12.693,128.232 12.875,128.038 13.109 M2.577 14.825 L 2.056 15.782 2.651 15.085 C 3.156 14.493,3.427 13.860,3.171 13.866 C 3.131 13.867,2.863 14.299,2.577 14.825 M127.871 45.133 C 127.871 61.600,127.906 68.337,127.950 60.103 C 127.993 51.869,127.993 38.396,127.950 30.162 C 127.906 21.928,127.871 28.665,127.871 45.133 M15.178 16.888 L 14.012 18.142 15.265 16.976 C 16.431 15.891,16.655 15.634,16.432 15.634 C 16.383 15.634,15.819 16.198,15.178 16.888 M398.548 18.196 C 398.501 18.914,399.116 20.059,399.550 20.059 C 399.798 20.059,400.000 19.926,400.000 19.764 C 400.000 19.602,399.812 19.469,399.582 19.469 C 399.352 19.469,399.031 19.104,398.868 18.658 C 398.705 18.212,398.561 18.004,398.548 18.196 M386.642 19.888 C 387.219 20.659,387.428 20.695,387.152 19.977 C 387.055 19.722,386.782 19.441,386.546 19.350 C 386.223 19.226,386.246 19.359,386.642 19.888 M0.885 22.812 C 0.885 23.839,0.773 24.189,0.442 24.189 C 0.050 24.189,0.000 34.415,0.000 114.454 C 0.000 193.949,0.052 204.720,0.437 204.720 C 0.817 204.720,1.337 22.189,0.959 21.559 C 0.918 21.491,0.885 22.055,0.885 22.812 M12.486 23.451 C 12.487 24.587,12.541 25.015,12.605 24.403 C 12.669 23.791,12.667 22.862,12.602 22.339 C 12.537 21.815,12.485 22.316,12.486 23.451 M387.390 22.566 C 387.393 23.215,387.454 23.446,387.524 23.079 C 387.595 22.712,387.592 22.181,387.518 21.899 C 387.444 21.617,387.387 21.917,387.390 22.566 M387.419 34.513 C 387.419 35.892,387.470 36.456,387.532 35.767 C 387.594 35.077,387.594 33.949,387.532 33.260 C 387.470 32.570,387.419 33.134,387.419 34.513 M387.455 57.522 C 387.455 68.311,387.492 72.725,387.537 67.330 C 387.582 61.936,387.582 53.108,387.537 47.714 C 387.492 42.319,387.455 46.733,387.455 57.522 M12.419 76.858 C 12.403 77.191,12.549 77.622,12.743 77.817 C 13.146 78.220,115.783 78.351,116.031 77.950 C 116.106 77.828,92.923 77.729,64.513 77.729 L 12.858 77.729 12.653 76.991 C 12.481 76.373,12.443 76.352,12.419 76.858 M127.763 76.753 C 127.725 77.309,128.792 78.177,129.490 78.160 C 129.738 78.153,129.522 77.966,129.009 77.742 C 128.496 77.519,128.014 77.093,127.937 76.795 C 127.818 76.334,127.792 76.327,127.763 76.753 M386.844 77.581 C 386.649 77.776,343.191 77.901,258.245 77.950 L 129.941 78.024 258.297 78.098 C 372.092 78.163,386.695 78.121,387.021 77.729 C 387.432 77.233,387.301 77.124,386.844 77.581 M16.740 89.306 C 18.403 89.358,21.125 89.358,22.788 89.306 C 24.451 89.253,23.090 89.210,19.764 89.210 C 16.438 89.210,15.077 89.253,16.740 89.306 M34.607 89.307 C 38.309 89.353,44.283 89.353,47.881 89.306 C 51.480 89.260,48.451 89.221,41.150 89.221 C 33.850 89.221,30.905 89.260,34.607 89.307 M56.870 89.304 C 57.890 89.362,59.483 89.362,60.410 89.303 C 61.336 89.245,60.501 89.198,58.555 89.198 C 56.608 89.199,55.850 89.246,56.870 89.304 M69.395 89.306 C 71.302 89.357,74.421 89.357,76.327 89.306 C 78.234 89.254,76.674 89.212,72.861 89.212 C 69.049 89.212,67.489 89.254,69.395 89.306 M82.384 89.303 C 83.159 89.364,84.354 89.363,85.038 89.301 C 85.723 89.239,85.088 89.189,83.628 89.190 C 82.168 89.191,81.608 89.242,82.384 89.303 M95.501 89.305 C 96.678 89.361,98.603 89.361,99.779 89.305 C 100.955 89.249,99.993 89.203,97.640 89.203 C 95.288 89.203,94.325 89.249,95.501 89.305 M104.513 89.305 C 105.941 89.360,108.197 89.359,109.528 89.305 C 110.858 89.250,109.690 89.206,106.932 89.206 C 104.174 89.207,103.085 89.251,104.513 89.305 M133.720 89.306 C 136.286 89.355,140.401 89.355,142.865 89.306 C 145.329 89.257,143.230 89.217,138.201 89.217 C 133.171 89.217,131.155 89.257,133.720 89.306 M148.156 89.289 C 148.440 89.363,148.905 89.363,149.189 89.289 C 149.473 89.215,149.240 89.154,148.673 89.154 C 148.105 89.154,147.872 89.215,148.156 89.289 M157.895 89.297 C 158.343 89.365,159.007 89.363,159.370 89.293 C 159.733 89.223,159.366 89.168,158.555 89.170 C 157.743 89.172,157.447 89.229,157.895 89.297 M168.071 89.294 C 168.438 89.365,168.969 89.362,169.251 89.288 C 169.533 89.214,169.233 89.157,168.584 89.160 C 167.935 89.163,167.704 89.224,168.071 89.294 M171.313 89.303 C 172.164 89.363,173.558 89.363,174.410 89.303 C 175.262 89.243,174.565 89.195,172.861 89.195 C 171.158 89.195,170.461 89.243,171.313 89.303 M184.145 89.306 C 187.349 89.354,192.592 89.354,195.796 89.306 C 199.001 89.259,196.379 89.220,189.971 89.220 C 183.562 89.220,180.940 89.259,184.145 89.306 M208.486 89.299 C 209.016 89.365,209.813 89.364,210.256 89.296 C 210.699 89.229,210.265 89.175,209.292 89.177 C 208.319 89.179,207.956 89.234,208.486 89.299 M212.014 89.298 C 212.538 89.364,213.467 89.365,214.079 89.301 C 214.691 89.237,214.263 89.184,213.127 89.182 C 211.991 89.181,211.490 89.233,212.014 89.298 M219.413 89.306 C 221.735 89.356,225.452 89.356,227.673 89.306 C 229.894 89.256,227.994 89.215,223.451 89.215 C 218.909 89.215,217.091 89.256,219.413 89.306 M233.857 89.302 C 234.551 89.364,235.613 89.363,236.217 89.300 C 236.821 89.237,236.254 89.186,234.956 89.187 C 233.658 89.188,233.164 89.240,233.857 89.302 M240.192 89.302 C 240.962 89.363,242.223 89.363,242.994 89.302 C 243.765 89.242,243.134 89.192,241.593 89.192 C 240.052 89.192,239.421 89.242,240.192 89.302 M248.173 89.306 C 250.088 89.357,253.142 89.357,254.958 89.306 C 256.774 89.254,255.206 89.212,251.475 89.212 C 247.743 89.212,246.257 89.255,248.173 89.306 M260.850 89.303 C 261.625 89.364,262.820 89.363,263.504 89.301 C 264.189 89.239,263.555 89.189,262.094 89.190 C 260.634 89.191,260.074 89.242,260.850 89.303 M285.029 89.307 C 288.721 89.353,294.760 89.353,298.451 89.307 C 302.142 89.260,299.122 89.221,291.740 89.221 C 284.358 89.221,281.338 89.260,285.029 89.307 M309.808 89.306 C 311.877 89.357,315.262 89.357,317.330 89.306 C 319.399 89.255,317.706 89.214,313.569 89.214 C 309.432 89.214,307.740 89.255,309.808 89.306 M337.849 89.306 C 339.927 89.357,343.246 89.357,345.224 89.306 C 347.202 89.255,345.501 89.213,341.445 89.213 C 337.389 89.214,335.771 89.255,337.849 89.306 M349.487 89.294 C 349.854 89.365,350.385 89.362,350.667 89.288 C 350.949 89.214,350.649 89.157,350.000 89.160 C 349.351 89.163,349.120 89.224,349.487 89.294 M353.330 89.304 C 354.351 89.362,355.943 89.362,356.870 89.303 C 357.796 89.245,356.962 89.198,355.015 89.198 C 353.068 89.199,352.310 89.246,353.330 89.304 M362.774 89.306 C 364.445 89.358,367.100 89.358,368.674 89.305 C 370.247 89.252,368.879 89.209,365.634 89.209 C 362.389 89.210,361.102 89.253,362.774 89.306 M375.016 89.306 C 376.769 89.358,379.557 89.358,381.211 89.305 C 382.865 89.253,381.431 89.210,378.024 89.210 C 374.617 89.211,373.263 89.254,375.016 89.306 M128.097 89.576 C 127.804 89.694,127.744 100.546,127.802 142.724 L 127.874 195.723 127.948 142.920 C 128.017 93.692,128.056 90.093,128.522 89.749 C 129.019 89.382,128.800 89.293,128.097 89.576 M265.407 89.698 C 265.659 90.022,265.795 91.990,265.856 96.188 L 265.942 102.212 266.009 96.128 C 266.070 90.635,266.026 90.003,265.560 89.638 C 265.105 89.281,265.087 89.288,265.407 89.698 M387.281 90.330 C 387.416 91.149,387.458 91.191,387.551 90.600 C 387.611 90.216,387.539 89.781,387.390 89.632 C 387.227 89.469,387.183 89.744,387.281 90.330 M277.136 143.658 C 277.136 173.267,277.170 185.380,277.212 170.575 C 277.255 155.771,277.255 131.545,277.212 116.740 C 277.170 101.936,277.136 114.049,277.136 143.658 M387.450 103.687 C 387.450 110.177,387.489 112.790,387.537 109.494 C 387.584 106.197,387.584 100.888,387.536 97.694 C 387.489 94.501,387.450 97.198,387.450 103.687 M265.879 112.537 C 265.880 113.673,265.933 114.101,265.997 113.489 C 266.061 112.877,266.060 111.948,265.995 111.424 C 265.929 110.900,265.877 111.401,265.879 112.537 M387.459 153.835 C 387.459 174.602,387.494 183.054,387.537 172.617 C 387.580 162.181,387.580 145.189,387.537 134.859 C 387.494 124.529,387.459 133.068,387.459 153.835 M221.239 122.913 C 220.833 122.994,220.236 123.298,219.912 123.589 C 219.587 123.879,218.968 124.299,218.536 124.522 C 217.824 124.889,210.018 132.214,206.991 135.356 C 205.295 137.117,202.833 139.568,195.966 146.335 C 192.743 149.511,189.873 152.465,189.589 152.899 C 188.525 154.522,187.878 154.151,182.341 148.746 C 175.895 142.454,175.256 142.035,172.102 142.035 C 167.355 142.035,164.728 145.595,165.743 150.650 C 166.193 152.891,168.297 155.333,175.475 161.947 C 176.796 163.164,178.905 165.155,180.163 166.372 C 184.304 170.378,186.336 171.208,190.677 170.666 C 192.612 170.424,197.369 166.838,201.023 162.867 C 202.029 161.773,207.848 155.940,224.894 138.938 C 229.063 134.780,229.065 134.778,229.596 133.207 C 230.877 129.425,229.800 126.287,226.332 123.693 C 225.448 123.031,222.727 122.614,221.239 122.913 M265.856 123.746 C 265.859 124.395,265.920 124.626,265.990 124.259 C 266.061 123.892,266.058 123.361,265.984 123.079 C 265.911 122.797,265.853 123.097,265.856 123.746 M265.907 133.628 C 265.907 137.117,265.950 138.544,266.002 136.799 C 266.054 135.055,266.054 132.201,266.002 130.457 C 265.950 128.713,265.907 130.140,265.907 133.628 M265.567 142.773 C 265.567 143.503,265.625 143.802,265.695 143.437 C 265.765 143.072,265.765 142.474,265.695 142.109 C 265.625 141.744,265.567 142.043,265.567 142.773 M265.862 174.926 C 265.862 175.656,265.920 175.955,265.990 175.590 C 266.060 175.225,266.060 174.628,265.990 174.263 C 265.920 173.897,265.862 174.196,265.862 174.926 M387.396 194.395 C 387.396 195.125,387.454 195.424,387.524 195.059 C 387.594 194.694,387.594 194.097,387.524 193.732 C 387.454 193.367,387.396 193.665,387.396 194.395 M265.782 196.562 C 265.782 198.030,264.930 198.638,262.580 198.847 L 260.619 199.022 262.624 199.069 C 265.058 199.125,266.077 198.403,266.077 196.621 C 266.077 196.046,266.010 195.575,265.929 195.575 C 265.848 195.575,265.782 196.019,265.782 196.562 M12.400 197.534 C 12.358 198.869,13.157 199.026,18.879 198.808 L 24.336 198.601 18.779 198.633 L 13.222 198.664 12.816 197.931 C 12.593 197.528,12.406 197.349,12.400 197.534 M386.917 198.113 C 386.400 198.823,386.246 198.858,384.068 198.768 C 382.801 198.715,381.827 198.772,381.903 198.894 C 382.547 199.929,387.611 198.767,387.611 197.584 C 387.611 197.222,387.511 197.297,386.917 198.113 M128.353 198.319 C 129.175 199.064,138.843 199.393,143.953 198.848 C 145.010 198.736,142.188 198.655,137.660 198.670 C 130.217 198.693,129.362 198.645,128.515 198.156 L 127.581 197.617 128.353 198.319 M277.295 198.120 C 277.278 198.753,278.134 199.153,279.257 199.036 L 280.383 198.919 279.144 198.870 C 278.314 198.836,277.806 198.650,277.605 198.304 C 277.439 198.020,277.300 197.937,277.295 198.120 M115.818 198.467 C 115.718 198.629,113.107 198.708,109.520 198.658 L 103.392 198.574 109.587 198.824 C 115.228 199.051,116.743 198.945,116.160 198.363 C 116.066 198.268,115.911 198.315,115.818 198.467 M27.286 198.820 L 25.221 199.011 27.139 199.058 C 28.193 199.085,29.255 198.977,29.499 198.820 C 29.742 198.663,29.808 198.556,29.646 198.582 C 29.484 198.608,28.422 198.715,27.286 198.820 M35.693 198.834 C 41.766 199.082,89.600 199.120,96.460 198.882 C 99.786 198.767,86.578 198.672,67.109 198.672 C 47.640 198.672,33.503 198.745,35.693 198.834 M149.853 198.805 C 152.043 198.907,153.948 198.899,154.086 198.787 C 154.224 198.675,152.432 198.592,150.103 198.601 L 145.870 198.619 149.853 198.805 M161.357 198.820 L 160.029 199.026 161.209 199.036 C 161.858 199.041,162.788 198.944,163.274 198.820 C 164.454 198.520,163.288 198.520,161.357 198.820 M165.487 198.855 C 164.904 198.958,165.739 199.037,167.404 199.036 C 170.302 199.035,170.470 198.929,167.847 198.759 C 167.117 198.711,166.055 198.755,165.487 198.855 M172.899 198.792 C 172.514 198.894,175.152 198.947,178.761 198.912 C 182.369 198.876,185.378 198.791,185.447 198.723 C 185.646 198.523,173.671 198.590,172.899 198.792 M185.865 198.632 C 185.933 198.690,190.435 198.801,195.870 198.877 C 201.419 198.955,204.071 198.923,201.917 198.804 C 197.876 198.581,185.655 198.450,185.865 198.632 M206.711 198.738 C 207.238 198.804,208.101 198.804,208.628 198.738 C 209.156 198.673,208.724 198.619,207.670 198.619 C 206.615 198.619,206.184 198.673,206.711 198.738 M211.726 198.743 C 212.577 198.802,213.971 198.802,214.823 198.743 C 215.675 198.683,214.978 198.634,213.274 198.634 C 211.571 198.634,210.874 198.683,211.726 198.743 M221.474 198.745 C 222.820 198.800,224.944 198.799,226.194 198.744 C 227.444 198.689,226.342 198.644,223.746 198.644 C 221.150 198.645,220.128 198.690,221.474 198.745 M239.528 198.837 C 235.780 198.940,238.344 198.970,245.417 198.906 C 252.306 198.844,258.003 198.733,258.076 198.659 C 258.239 198.497,248.606 198.589,239.528 198.837 M281.645 198.741 C 282.339 198.804,283.401 198.803,284.005 198.739 C 284.609 198.676,284.041 198.625,282.743 198.626 C 281.445 198.627,280.951 198.679,281.645 198.741 M287.049 198.652 C 287.119 198.722,289.364 198.838,292.039 198.909 C 294.953 198.988,296.430 198.944,295.723 198.800 C 294.516 198.554,286.820 198.422,287.049 198.652 M298.968 198.847 C 298.156 198.944,306.906 199.043,318.412 199.069 C 329.918 199.094,339.273 199.057,339.202 198.986 C 339.000 198.783,300.621 198.651,298.968 198.847 M342.035 198.828 C 341.376 198.941,343.383 199.050,346.583 199.073 C 349.733 199.096,352.255 199.067,352.188 199.008 C 351.934 198.788,343.167 198.632,342.035 198.828 M363.348 198.745 C 365.173 198.797,368.160 198.797,369.985 198.745 C 371.810 198.694,370.317 198.651,366.667 198.651 C 363.016 198.651,361.523 198.694,363.348 198.745 M379.871 198.734 C 380.238 198.804,380.769 198.802,381.051 198.728 C 381.333 198.654,381.032 198.596,380.383 198.599 C 379.735 198.603,379.504 198.663,379.871 198.734 M355.383 199.038 C 356.235 199.097,357.629 199.097,358.481 199.038 C 359.333 198.978,358.636 198.929,356.932 198.929 C 355.229 198.929,354.532 198.978,355.383 199.038 M374.115 199.031 C 374.561 199.099,375.291 199.099,375.737 199.031 C 376.184 198.964,375.819 198.908,374.926 198.908 C 374.034 198.908,373.669 198.964,374.115 199.031 M0.000 208.260 C 0.000 209.898,0.091 210.324,0.442 210.324 C 0.794 210.324,0.885 209.898,0.885 208.260 C 0.885 206.621,0.794 206.195,0.442 206.195 C 0.091 206.195,0.000 206.621,0.000 208.260 M127.897 210.788 C 127.266 211.419,127.308 211.705,127.950 211.146 C 128.234 210.899,128.665 210.623,128.909 210.534 C 129.270 210.401,129.260 210.367,128.856 210.348 C 128.584 210.335,128.152 210.533,127.897 210.788 M265.118 210.629 C 265.698 210.862,265.789 211.129,265.837 212.749 L 265.893 214.602 266.000 212.881 C 266.113 211.080,265.789 210.310,264.934 210.343 C 264.609 210.356,264.669 210.448,265.118 210.629 M277.321 210.725 C 277.078 211.018,277.009 220.677,277.065 246.787 L 277.141 282.448 277.214 246.740 C 277.269 219.442,277.370 210.949,277.640 210.678 C 277.835 210.484,277.917 210.324,277.824 210.324 C 277.730 210.324,277.504 210.505,277.321 210.725 M127.871 246.460 C 127.871 265.280,127.907 273.023,127.950 263.666 C 127.993 254.309,127.993 238.911,127.950 229.448 C 127.907 219.984,127.871 227.640,127.871 246.460 M0.000 230.236 C 0.000 242.232,0.056 243.953,0.442 243.953 C 0.829 243.953,0.885 242.232,0.885 230.236 C 0.885 218.240,0.829 216.519,0.442 216.519 C 0.056 216.519,0.000 218.240,0.000 230.236 M387.457 245.575 C 387.457 261.637,387.493 268.165,387.537 260.081 C 387.580 251.997,387.580 238.855,387.537 230.877 C 387.493 222.899,387.457 229.513,387.457 245.575 M265.911 233.481 C 265.912 238.024,265.952 239.841,266.002 237.519 C 266.052 235.197,266.052 231.480,266.002 229.259 C 265.952 227.038,265.911 228.938,265.911 233.481 M0.000 248.968 C 0.000 250.606,0.091 251.032,0.442 251.032 C 0.794 251.032,0.885 250.606,0.885 248.968 C 0.885 247.329,0.794 246.903,0.442 246.903 C 0.091 246.903,0.000 247.329,0.000 248.968 M0.000 259.440 C 0.000 266.454,0.060 267.552,0.442 267.552 C 0.825 267.552,0.885 266.454,0.885 259.440 C 0.885 252.425,0.825 251.327,0.442 251.327 C 0.060 251.327,0.000 252.425,0.000 259.440 M265.862 265.487 C 265.862 266.217,265.920 266.515,265.990 266.150 C 266.060 265.785,266.060 265.188,265.990 264.823 C 265.920 264.458,265.862 264.757,265.862 265.487 M265.900 271.829 C 265.900 274.263,265.946 275.219,266.001 273.954 C 266.057 272.689,266.056 270.698,266.000 269.529 C 265.945 268.360,265.899 269.395,265.900 271.829 M12.481 273.009 C 12.482 273.982,12.538 274.345,12.603 273.815 C 12.669 273.285,12.667 272.488,12.600 272.045 C 12.533 271.602,12.479 272.035,12.481 273.009 M0.000 273.009 C 0.000 273.693,0.138 274.041,0.410 274.041 C 0.646 274.041,0.903 274.490,1.019 275.104 C 1.372 276.988,1.464 275.998,1.125 273.954 C 0.765 271.776,0.000 271.134,0.000 273.009 M398.818 276.557 C 398.612 277.292,398.511 277.960,398.593 278.042 C 398.675 278.124,398.823 277.789,398.921 277.296 C 399.027 276.769,399.285 276.401,399.550 276.401 C 399.803 276.401,400.000 276.143,400.000 275.811 C 400.000 274.702,399.195 275.210,398.818 276.557 M386.498 276.511 C 386.136 277.039,385.841 277.592,385.841 277.742 C 385.841 277.891,386.184 277.507,386.604 276.889 C 387.024 276.271,387.320 275.717,387.262 275.659 C 387.203 275.600,386.859 275.984,386.498 276.511 M265.885 279.646 C 265.885 281.025,265.936 281.589,265.998 280.900 C 266.060 280.210,266.060 279.082,265.998 278.392 C 265.936 277.703,265.885 278.267,265.885 279.646 M17.469 281.573 C 17.910 282.037,18.324 282.358,18.389 282.285 C 18.453 282.213,18.092 281.833,17.586 281.441 L 16.667 280.729 17.469 281.573 M3.268 282.618 C 3.255 282.874,3.610 283.405,4.056 283.798 L 4.867 284.513 4.241 283.776 C 3.897 283.370,3.542 282.839,3.453 282.596 C 3.315 282.217,3.288 282.220,3.268 282.618 M20.649 283.038 C 21.055 283.270,21.586 283.459,21.829 283.459 C 22.072 283.458,21.825 283.264,21.279 283.027 C 20.023 282.481,19.686 282.488,20.649 283.038 M378.466 283.038 C 378.038 283.283,377.914 283.460,378.171 283.461 C 378.414 283.462,378.871 283.267,379.186 283.029 C 379.915 282.478,379.436 282.484,378.466 283.038 M277.543 283.260 C 277.927 283.748,280.625 283.772,327.838 283.703 L 377.729 283.630 327.905 283.555 C 288.650 283.495,277.982 283.401,277.610 283.111 C 277.193 282.785,277.185 282.802,277.543 283.260 M71.976 283.481 L 27.876 283.631 71.885 283.704 C 100.985 283.751,115.956 283.676,116.077 283.481 C 116.177 283.319,116.218 283.218,116.168 283.258 C 116.118 283.298,96.232 283.398,71.976 283.481 M23.820 283.697 C 24.510 283.759,25.638 283.759,26.327 283.697 C 27.017 283.635,26.453 283.584,25.074 283.584 C 23.695 283.584,23.131 283.635,23.820 283.697 M163.938 283.702 C 182.150 283.744,211.951 283.744,230.162 283.702 C 248.374 283.660,233.473 283.626,197.050 283.626 C 160.627 283.626,145.726 283.660,163.938 283.702 M6.416 287.168 C 6.753 287.655,7.534 288.518,8.152 289.086 C 9.049 289.910,8.985 289.792,7.833 288.496 C 5.897 286.316,5.698 286.129,6.416 287.168 M16.281 293.879 C 16.537 294.082,16.817 294.447,16.904 294.690 C 17.011 294.987,17.070 294.925,17.086 294.501 C 17.099 294.153,16.899 293.788,16.643 293.689 C 15.909 293.408,15.776 293.478,16.281 293.879 M383.939 293.905 C 383.642 294.122,383.474 294.487,383.564 294.716 C 383.694 295.044,383.734 295.033,383.753 294.662 C 383.765 294.402,384.074 294.046,384.440 293.870 C 384.805 293.694,384.963 293.541,384.791 293.530 C 384.619 293.519,384.236 293.688,383.939 293.905 " stroke="none" fill="#45c171" fill-rule="evenodd"></path><path id="path2" d="M0.000 9.440 C 0.000 17.398,0.066 18.879,0.419 18.879 C 0.717 18.879,0.898 18.321,1.046 16.941 C 1.196 15.539,1.447 14.772,1.954 14.170 C 2.339 13.711,2.655 12.990,2.655 12.565 C 2.655 12.139,3.018 11.391,3.466 10.893 C 3.912 10.398,4.609 9.591,5.015 9.100 C 5.696 8.275,7.585 6.348,8.997 5.037 C 9.322 4.736,9.886 4.400,10.251 4.290 C 10.616 4.180,10.914 3.897,10.914 3.660 C 10.914 3.195,12.055 2.655,13.038 2.655 C 13.374 2.655,13.939 2.343,14.292 1.961 C 14.803 1.410,15.372 1.224,17.055 1.058 C 18.606 0.905,19.174 0.735,19.174 0.425 C 19.174 0.064,17.733 0.000,9.587 0.000 L 0.000 0.000 0.000 9.440 M381.121 0.404 C 381.121 0.809,382.541 1.170,384.159 1.177 C 384.657 1.179,385.255 1.472,385.667 1.917 C 386.064 2.346,386.678 2.655,387.131 2.655 C 387.595 2.655,388.286 3.013,388.837 3.540 C 389.346 4.027,389.927 4.425,390.128 4.425 C 390.328 4.425,390.710 4.757,390.976 5.162 C 391.242 5.568,391.640 5.900,391.860 5.900 C 392.081 5.900,392.752 6.464,393.351 7.153 C 393.950 7.843,394.762 8.774,395.155 9.223 C 395.549 9.672,395.870 10.161,395.870 10.310 C 395.870 10.458,396.133 10.663,396.454 10.765 C 396.818 10.881,397.156 11.392,397.354 12.128 C 397.529 12.775,397.930 13.564,398.246 13.880 C 398.562 14.196,398.822 14.819,398.824 15.265 C 398.830 16.529,399.145 17.404,399.592 17.404 C 399.930 17.404,400.000 15.915,400.000 8.702 L 400.000 0.000 390.560 0.000 C 382.767 0.000,381.121 0.070,381.121 0.404 M20.854 14.021 C 20.371 14.446,19.662 14.749,19.151 14.749 C 18.504 14.749,18.189 14.941,17.940 15.487 C 17.756 15.892,17.477 16.224,17.322 16.224 C 16.921 16.224,14.749 18.514,14.749 18.937 C 14.749 19.131,14.417 19.770,14.010 20.356 L 13.271 21.423 13.347 49.072 L 13.422 76.721 63.422 76.861 C 90.922 76.937,113.867 77.007,114.411 77.015 C 114.955 77.022,115.486 76.943,115.591 76.838 C 115.696 76.733,115.782 62.421,115.782 45.034 L 115.782 13.422 68.732 13.357 L 21.681 13.292 20.854 14.021 M129.372 13.536 C 129.054 14.050,129.179 76.098,129.499 76.696 C 129.736 77.141,129.952 77.211,130.468 77.015 C 130.832 76.877,188.572 76.781,258.778 76.803 C 364.831 76.837,386.450 76.777,386.575 76.451 C 387.133 74.997,386.703 21.303,386.128 20.640 C 385.799 20.260,385.448 19.623,385.347 19.223 C 385.146 18.423,383.154 16.224,382.630 16.224 C 382.449 16.224,382.301 16.101,382.301 15.950 C 382.301 15.400,381.353 14.749,380.550 14.749 C 380.096 14.749,379.346 14.451,378.882 14.086 L 378.038 13.422 253.786 13.347 C 181.025 13.303,129.467 13.382,129.372 13.536 M139.307 89.901 L 129.204 89.978 129.204 142.944 C 129.204 177.031,129.100 196.102,128.914 196.450 C 128.695 196.859,128.740 197.035,129.096 197.172 C 129.622 197.374,263.981 197.474,264.182 197.273 C 264.327 197.128,264.377 90.237,264.232 90.092 C 264.109 89.969,152.618 89.798,139.307 89.901 M301.843 89.898 L 277.875 89.974 277.949 143.714 L 278.024 197.455 332.006 197.417 C 361.696 197.397,386.154 197.372,386.357 197.363 C 386.651 197.349,386.726 186.402,386.726 143.658 L 386.726 89.971 360.251 89.904 C 345.690 89.868,331.984 89.835,329.794 89.831 C 327.603 89.826,315.025 89.857,301.843 89.898 M13.347 143.682 L 13.422 197.393 64.525 197.443 C 106.843 197.484,115.654 197.425,115.778 197.100 C 115.861 196.884,115.929 172.691,115.929 143.339 L 115.929 89.971 64.601 89.971 L 13.273 89.971 13.347 143.682 M224.483 122.419 C 225.529 122.419,226.120 122.595,226.703 123.083 C 228.716 124.765,229.749 125.870,229.945 126.549 C 230.062 126.954,230.336 127.489,230.553 127.738 C 231.245 128.529,231.172 131.825,230.434 133.181 C 230.082 133.828,229.794 134.522,229.794 134.723 C 229.794 134.925,229.467 135.304,229.068 135.565 C 228.668 135.827,228.263 136.288,228.168 136.589 C 228.072 136.891,227.742 137.218,227.434 137.316 C 227.126 137.413,226.789 137.760,226.686 138.086 C 226.582 138.412,226.177 138.825,225.786 139.003 C 225.394 139.182,225.074 139.501,225.074 139.712 C 225.074 139.924,224.807 140.240,224.481 140.415 C 224.154 140.589,218.708 145.937,212.378 152.298 C 198.774 165.969,200.781 163.965,198.820 165.846 C 193.251 171.191,190.882 172.232,186.487 171.266 C 184.008 170.722,183.583 170.442,179.946 166.962 C 178.505 165.583,176.584 163.791,175.677 162.979 C 174.770 162.168,173.865 161.332,173.666 161.122 C 173.467 160.911,173.129 160.579,172.915 160.384 C 170.830 158.485,167.229 154.776,166.939 154.229 C 166.738 153.850,166.334 153.370,166.042 153.163 C 165.749 152.955,165.428 152.291,165.328 151.688 C 165.228 151.084,165.036 150.242,164.902 149.816 C 163.838 146.440,167.081 141.859,170.845 141.421 C 174.741 140.967,175.967 141.585,180.991 146.534 C 182.844 148.359,184.485 149.853,184.638 149.853 C 184.791 149.853,184.998 150.111,185.098 150.427 C 185.199 150.744,185.548 151.087,185.874 151.190 C 186.200 151.294,186.613 151.699,186.791 152.090 C 187.197 152.982,188.982 153.121,189.301 152.286 C 189.522 151.708,191.307 149.948,192.105 149.520 C 192.391 149.367,192.625 149.056,192.625 148.830 C 192.625 148.603,192.899 148.331,193.233 148.224 C 193.568 148.118,193.986 147.714,194.163 147.325 C 194.340 146.937,194.730 146.541,195.030 146.446 C 195.330 146.351,195.575 146.168,195.575 146.041 C 195.575 145.913,196.167 145.225,196.890 144.512 C 197.614 143.799,198.377 143.046,198.586 142.838 C 198.796 142.631,199.140 142.299,199.350 142.101 C 199.561 141.903,199.893 141.565,200.088 141.351 C 200.519 140.876,200.773 140.623,203.392 138.054 C 204.528 136.940,205.619 135.853,205.818 135.639 C 206.220 135.205,206.744 134.677,207.308 134.136 C 207.515 133.938,209.958 131.552,212.736 128.835 C 215.515 126.117,217.925 123.894,218.093 123.894 C 218.261 123.894,218.707 123.604,219.084 123.250 C 219.742 122.632,221.842 122.080,222.664 122.309 C 222.880 122.370,223.699 122.419,224.483 122.419 M13.472 211.110 C 12.883 211.700,13.268 275.197,13.862 275.515 C 14.206 275.699,14.588 276.377,14.782 277.148 C 14.970 277.894,15.287 278.466,15.512 278.466 C 15.731 278.466,16.089 278.806,16.307 279.222 C 16.525 279.638,16.976 280.136,17.309 280.329 C 17.643 280.521,18.232 280.903,18.619 281.177 C 20.142 282.256,23.170 282.328,69.986 282.389 L 115.635 282.448 115.792 281.563 C 115.878 281.077,115.911 265.015,115.865 245.870 L 115.782 211.062 64.726 210.987 C 36.645 210.946,13.580 211.002,13.472 211.110 M129.371 211.178 C 129.038 211.716,129.181 281.708,129.516 282.334 C 129.748 282.768,129.977 282.868,130.332 282.692 C 130.604 282.558,160.760 282.448,197.345 282.448 C 251.234 282.448,263.910 282.376,264.106 282.069 C 264.556 281.363,264.512 211.238,264.061 211.065 C 263.350 210.792,129.540 210.904,129.371 211.178 M278.012 211.282 C 277.935 211.486,277.906 227.515,277.948 246.903 L 278.024 282.153 326.844 282.301 C 379.965 282.461,379.821 282.465,381.486 280.900 C 381.874 280.535,382.418 280.236,382.695 280.236 C 382.972 280.236,383.350 279.904,383.534 279.499 C 383.719 279.093,383.972 278.761,384.097 278.761 C 384.581 278.761,385.251 277.799,385.251 277.103 C 385.251 276.702,385.583 276.065,385.990 275.688 L 386.728 275.004 386.653 243.033 L 386.578 211.062 332.366 210.987 C 289.151 210.928,278.125 210.988,278.012 211.282 M0.000 285.988 L 0.000 294.985 7.817 294.985 C 14.421 294.985,15.634 294.919,15.634 294.561 C 15.634 294.283,15.170 294.067,14.292 293.935 C 13.039 293.747,12.094 293.191,12.094 292.641 C 12.094 292.511,11.716 292.328,11.252 292.236 C 9.747 291.935,4.589 286.965,4.269 285.507 C 4.166 285.039,3.832 284.522,3.526 284.358 C 3.220 284.195,2.826 283.525,2.649 282.870 C 2.473 282.216,2.070 281.421,1.754 281.105 C 1.438 280.789,1.180 280.149,1.180 279.683 C 1.180 278.218,0.827 276.991,0.406 276.991 C 0.070 276.991,0.000 278.551,0.000 285.988 M398.999 279.523 C 398.901 279.779,398.820 280.383,398.820 280.864 C 398.820 281.419,398.550 281.990,398.083 282.423 C 397.677 282.798,397.345 283.385,397.345 283.726 C 397.345 284.066,396.947 284.799,396.460 285.353 C 395.973 285.908,395.575 286.448,395.575 286.554 C 395.575 286.873,391.489 290.855,391.161 290.855 C 390.993 290.855,390.855 291.057,390.855 291.304 C 390.855 291.551,390.490 291.910,390.044 292.102 C 389.598 292.294,388.996 292.689,388.707 292.979 C 388.418 293.269,387.588 293.656,386.863 293.839 C 383.580 294.665,385.229 294.985,392.773 294.985 L 400.000 294.985 400.000 287.021 C 400.000 280.410,399.930 279.056,399.589 279.056 C 399.363 279.056,399.098 279.266,398.999 279.523 " stroke="none" fill="none" fill-rule="evenodd"></path><path id="path3" d="M19.174 0.425 C 19.174 0.735,18.606 0.905,17.055 1.058 C 15.372 1.224,14.803 1.410,14.292 1.961 C 13.939 2.343,13.374 2.655,13.038 2.655 C 12.055 2.655,10.914 3.195,10.914 3.660 C 10.914 3.897,10.616 4.180,10.251 4.290 C 9.886 4.400,9.322 4.736,8.997 5.037 C 7.585 6.348,5.696 8.275,5.015 9.100 C 4.609 9.591,3.912 10.398,3.466 10.893 C 3.018 11.391,2.655 12.139,2.655 12.565 C 2.655 12.990,2.339 13.711,1.954 14.170 C 1.447 14.772,1.196 15.539,1.046 16.941 C 0.898 18.321,0.717 18.879,0.419 18.879 C 0.088 18.879,0.000 19.437,0.000 21.534 C 0.000 23.697,0.082 24.189,0.442 24.189 C 0.729 24.189,0.884 23.903,0.883 23.378 C 0.879 21.200,1.897 16.006,2.550 14.871 C 2.932 14.208,3.245 13.399,3.245 13.075 C 3.245 11.978,9.774 4.720,10.760 4.720 C 10.957 4.720,11.356 4.457,11.647 4.136 C 11.937 3.814,12.623 3.467,13.170 3.365 C 13.717 3.262,14.501 2.914,14.911 2.591 C 15.703 1.968,18.906 1.407,23.890 1.017 C 28.238 0.677,27.553 0.000,22.861 0.000 C 19.849 0.000,19.174 0.078,19.174 0.425 M29.204 0.442 C 29.204 0.686,29.403 0.885,29.646 0.885 C 29.889 0.885,30.088 0.686,30.088 0.442 C 30.088 0.199,29.889 0.000,29.646 0.000 C 29.403 0.000,29.204 0.199,29.204 0.442 M374.041 0.398 C 374.041 0.690,374.769 0.846,376.770 0.982 C 380.357 1.226,384.334 1.949,384.926 2.464 C 385.186 2.690,385.929 3.044,386.578 3.250 C 387.227 3.457,388.133 3.938,388.592 4.320 C 389.051 4.702,389.536 5.015,389.671 5.015 C 389.886 5.015,394.155 9.244,395.895 11.182 C 396.246 11.573,396.663 12.369,396.821 12.952 C 396.979 13.535,397.282 14.211,397.495 14.454 C 397.707 14.698,398.033 15.494,398.219 16.224 C 398.868 18.765,399.163 19.469,399.580 19.469 C 399.863 19.469,400.000 19.133,400.000 18.437 C 400.000 17.754,399.862 17.404,399.592 17.404 C 399.145 17.404,398.830 16.529,398.824 15.265 C 398.822 14.819,398.562 14.196,398.246 13.880 C 397.930 13.564,397.529 12.775,397.354 12.128 C 397.156 11.392,396.818 10.881,396.454 10.765 C 396.133 10.663,395.870 10.458,395.870 10.310 C 395.870 10.161,395.549 9.672,395.155 9.223 C 394.762 8.774,393.950 7.843,393.351 7.153 C 392.752 6.464,392.081 5.900,391.860 5.900 C 391.640 5.900,391.242 5.568,390.976 5.162 C 390.710 4.757,390.328 4.425,390.128 4.425 C 389.927 4.425,389.346 4.027,388.837 3.540 C 388.286 3.013,387.595 2.655,387.131 2.655 C 386.678 2.655,386.064 2.346,385.667 1.917 C 385.255 1.472,384.657 1.179,384.159 1.177 C 382.541 1.170,381.121 0.809,381.121 0.404 C 381.121 0.084,380.381 0.000,377.581 0.000 C 374.807 0.000,374.041 0.086,374.041 0.398 M20.649 13.123 C 20.243 13.360,19.469 13.763,18.928 14.018 C 17.855 14.525,14.159 17.920,14.159 18.398 C 14.159 18.560,13.870 19.001,13.518 19.377 C 12.964 19.966,12.842 20.567,12.628 23.751 C 12.317 28.374,12.451 77.006,12.776 77.507 C 12.965 77.800,23.626 77.876,64.454 77.876 C 105.282 77.876,115.944 77.800,116.133 77.507 C 116.509 76.927,116.594 13.966,116.220 13.267 C 115.800 12.482,21.990 12.341,20.649 13.123 M128.687 12.989 C 128.188 13.189,128.024 13.495,128.025 14.224 C 128.025 14.756,128.022 28.931,128.018 45.723 C 128.014 62.515,128.013 76.481,128.017 76.760 C 128.021 77.038,128.281 77.403,128.597 77.572 C 129.504 78.058,386.444 77.993,386.916 77.507 C 387.190 77.225,387.296 70.578,387.367 49.115 L 387.460 21.091 386.577 19.628 C 385.539 17.907,381.915 14.159,381.290 14.159 C 381.052 14.159,380.233 13.827,379.470 13.422 L 378.083 12.684 253.717 12.703 C 180.306 12.714,129.079 12.831,128.687 12.989 M115.782 45.034 C 115.782 62.421,115.696 76.733,115.591 76.838 C 115.486 76.943,114.955 77.022,114.411 77.015 C 113.867 77.007,90.922 76.937,63.422 76.861 L 13.422 76.721 13.347 49.072 L 13.271 21.423 14.010 20.356 C 14.417 19.770,14.749 19.131,14.749 18.937 C 14.749 18.514,16.921 16.224,17.322 16.224 C 17.477 16.224,17.756 15.892,17.940 15.487 C 18.189 14.941,18.504 14.749,19.151 14.749 C 19.662 14.749,20.371 14.446,20.854 14.021 L 21.681 13.292 68.732 13.357 L 115.782 13.422 115.782 45.034 M378.882 14.086 C 379.346 14.451,380.096 14.749,380.550 14.749 C 381.353 14.749,382.301 15.400,382.301 15.950 C 382.301 16.101,382.449 16.224,382.630 16.224 C 383.154 16.224,385.146 18.423,385.347 19.223 C 385.448 19.623,385.799 20.260,386.128 20.640 C 386.703 21.303,387.133 74.997,386.575 76.451 C 386.450 76.777,364.831 76.837,258.778 76.803 C 188.572 76.781,130.832 76.877,130.468 77.015 C 129.952 77.211,129.736 77.141,129.499 76.696 C 129.179 76.098,129.054 14.050,129.372 13.536 C 129.467 13.382,181.025 13.303,253.786 13.347 L 378.038 13.422 378.882 14.086 M12.947 89.614 C 12.218 90.124,12.085 196.619,12.812 197.927 L 13.217 198.656 64.439 198.678 C 108.862 198.698,115.708 198.644,116.016 198.273 C 116.634 197.528,116.675 90.172,116.057 89.659 C 115.370 89.089,13.760 89.045,12.947 89.614 M137.994 89.381 C 132.176 89.472,128.528 89.643,128.339 89.832 C 128.134 90.037,128.029 107.526,128.016 143.961 L 127.995 197.788 128.626 198.210 C 129.726 198.946,264.152 198.879,265.090 198.142 L 265.771 197.606 265.771 143.819 C 265.770 99.224,265.703 89.977,265.375 89.705 C 264.958 89.359,156.841 89.083,137.994 89.381 M277.708 89.469 C 277.199 89.753,277.068 197.428,277.575 198.230 C 278.039 198.964,386.221 198.951,386.886 198.216 C 387.421 197.624,387.582 90.119,387.048 89.585 C 386.713 89.250,278.304 89.135,277.708 89.469 M264.232 90.092 C 264.377 90.237,264.327 197.128,264.182 197.273 C 263.981 197.474,129.622 197.374,129.096 197.172 C 128.740 197.035,128.695 196.859,128.914 196.450 C 129.100 196.102,129.204 177.031,129.204 142.944 L 129.204 89.978 139.307 89.901 C 152.618 89.798,264.109 89.969,264.232 90.092 M360.251 89.904 L 386.726 89.971 386.726 143.658 C 386.726 186.402,386.651 197.349,386.357 197.363 C 386.154 197.372,361.696 197.397,332.006 197.417 L 278.024 197.455 277.949 143.714 L 277.875 89.974 301.843 89.898 C 315.025 89.857,327.603 89.826,329.794 89.831 C 331.984 89.835,345.690 89.868,360.251 89.904 M115.929 143.339 C 115.929 172.691,115.861 196.884,115.778 197.100 C 115.654 197.425,106.843 197.484,64.525 197.443 L 13.422 197.393 13.347 143.682 L 13.273 89.971 64.601 89.971 L 115.929 89.971 115.929 143.339 M221.021 122.402 C 220.333 122.514,219.462 122.895,219.084 123.250 C 218.707 123.604,218.261 123.894,218.093 123.894 C 217.925 123.894,215.515 126.117,212.736 128.835 C 209.958 131.552,207.515 133.938,207.308 134.136 C 206.744 134.677,206.220 135.205,205.818 135.639 C 205.619 135.853,204.528 136.940,203.392 138.054 C 200.773 140.623,200.519 140.876,200.088 141.351 C 199.893 141.565,199.561 141.903,199.350 142.101 C 199.140 142.299,198.796 142.631,198.586 142.838 C 198.377 143.046,197.614 143.799,196.890 144.512 C 196.167 145.225,195.575 145.913,195.575 146.041 C 195.575 146.168,195.330 146.351,195.030 146.446 C 194.730 146.541,194.340 146.937,194.163 147.325 C 193.986 147.714,193.568 148.118,193.233 148.224 C 192.899 148.331,192.625 148.603,192.625 148.830 C 192.625 149.056,192.391 149.367,192.105 149.520 C 191.307 149.948,189.522 151.708,189.301 152.286 C 188.982 153.121,187.197 152.982,186.791 152.090 C 186.613 151.699,186.200 151.294,185.874 151.190 C 185.548 151.087,185.199 150.744,185.098 150.427 C 184.998 150.111,184.791 149.853,184.638 149.853 C 184.485 149.853,182.844 148.359,180.991 146.534 C 175.967 141.585,174.741 140.967,170.845 141.421 C 167.081 141.859,163.838 146.440,164.902 149.816 C 165.036 150.242,165.228 151.084,165.328 151.688 C 165.428 152.291,165.749 152.955,166.042 153.163 C 166.334 153.370,166.738 153.850,166.939 154.229 C 167.229 154.776,170.830 158.485,172.915 160.384 C 173.129 160.579,173.467 160.911,173.666 161.122 C 173.865 161.332,174.770 162.168,175.677 162.979 C 176.584 163.791,178.505 165.583,179.946 166.962 C 183.583 170.442,184.008 170.722,186.487 171.266 C 190.882 172.232,193.251 171.191,198.820 165.846 C 200.781 163.965,198.774 165.969,212.378 152.298 C 218.708 145.937,224.154 140.589,224.481 140.415 C 224.807 140.240,225.074 139.924,225.074 139.712 C 225.074 139.501,225.394 139.182,225.786 139.003 C 226.177 138.825,226.582 138.412,226.686 138.086 C 226.789 137.760,227.126 137.413,227.434 137.316 C 227.742 137.218,228.072 136.891,228.168 136.589 C 228.263 136.288,228.668 135.827,229.068 135.565 C 229.467 135.304,229.794 134.925,229.794 134.723 C 229.794 134.522,230.082 133.828,230.434 133.181 C 231.172 131.825,231.245 128.529,230.553 127.738 C 230.336 127.489,230.062 126.954,229.945 126.549 C 229.749 125.870,228.716 124.765,226.703 123.083 C 226.120 122.595,225.529 122.419,224.483 122.419 C 223.699 122.419,222.880 122.370,222.664 122.309 C 222.448 122.249,221.709 122.291,221.021 122.402 M226.332 123.693 C 229.800 126.287,230.877 129.425,229.596 133.207 C 229.065 134.778,229.063 134.780,224.894 138.938 C 207.848 155.940,202.029 161.773,201.023 162.867 C 197.369 166.838,192.612 170.424,190.677 170.666 C 186.336 171.208,184.304 170.378,180.163 166.372 C 178.905 165.155,176.796 163.164,175.475 161.947 C 168.297 155.333,166.193 152.891,165.743 150.650 C 164.728 145.595,167.355 142.035,172.102 142.035 C 175.256 142.035,175.895 142.454,182.341 148.746 C 187.878 154.151,188.525 154.522,189.589 152.899 C 189.873 152.465,192.743 149.511,195.966 146.335 C 202.833 139.568,205.295 137.117,206.991 135.356 C 210.018 132.214,217.824 124.889,218.536 124.522 C 218.968 124.299,219.587 123.879,219.912 123.589 C 221.102 122.523,224.849 122.583,226.332 123.693 M12.836 210.805 C 12.397 211.244,12.364 214.034,12.446 243.205 L 12.537 275.125 13.348 276.295 C 13.794 276.939,14.159 277.629,14.159 277.830 C 14.159 278.884,17.985 281.905,20.323 282.697 L 22.668 283.491 69.212 283.484 C 101.091 283.479,115.854 283.379,116.064 283.169 C 116.499 282.735,116.651 211.712,116.220 210.906 C 115.776 210.077,13.663 209.978,12.836 210.805 M128.674 210.698 L 127.996 211.062 128.002 246.884 C 128.006 276.291,128.078 282.776,128.400 283.098 C 128.724 283.423,140.602 283.491,196.771 283.491 L 264.749 283.491 265.265 282.863 C 265.751 282.273,265.782 280.101,265.782 246.568 L 265.782 210.900 265.025 210.612 C 263.807 210.149,129.537 210.233,128.674 210.698 M277.640 210.678 C 277.126 211.193,277.126 282.613,277.640 283.127 C 278.210 283.697,377.313 283.635,378.417 283.064 C 378.861 282.834,379.721 282.553,380.329 282.439 C 380.937 282.325,381.846 281.882,382.349 281.455 C 384.102 279.968,385.841 278.153,385.841 277.810 C 385.841 277.621,386.166 276.994,386.564 276.417 L 387.287 275.369 387.337 243.107 C 387.379 216.068,387.321 210.804,386.982 210.590 C 386.312 210.165,278.066 210.253,277.640 210.678 M115.865 245.870 C 115.911 265.015,115.878 281.077,115.792 281.563 L 115.635 282.448 69.986 282.389 C 23.170 282.328,20.142 282.256,18.619 281.177 C 18.232 280.903,17.643 280.521,17.309 280.329 C 16.976 280.136,16.525 279.638,16.307 279.222 C 16.089 278.806,15.731 278.466,15.512 278.466 C 15.287 278.466,14.970 277.894,14.782 277.148 C 14.588 276.377,14.206 275.699,13.862 275.515 C 13.268 275.197,12.883 211.700,13.472 211.110 C 13.580 211.002,36.645 210.946,64.726 210.987 L 115.782 211.062 115.865 245.870 M264.061 211.065 C 264.512 211.238,264.556 281.363,264.106 282.069 C 263.910 282.376,251.234 282.448,197.345 282.448 C 160.760 282.448,130.604 282.558,130.332 282.692 C 129.977 282.868,129.748 282.768,129.516 282.334 C 129.181 281.708,129.038 211.716,129.371 211.178 C 129.540 210.904,263.350 210.792,264.061 211.065 M386.653 243.033 L 386.728 275.004 385.990 275.688 C 385.583 276.065,385.251 276.702,385.251 277.103 C 385.251 277.799,384.581 278.761,384.097 278.761 C 383.972 278.761,383.719 279.093,383.534 279.499 C 383.350 279.904,382.972 280.236,382.695 280.236 C 382.418 280.236,381.874 280.535,381.486 280.900 C 379.821 282.465,379.965 282.461,326.844 282.301 L 278.024 282.153 277.948 246.903 C 277.906 227.515,277.935 211.486,278.012 211.282 C 278.125 210.988,289.151 210.928,332.366 210.987 L 386.578 211.062 386.653 243.033 M0.000 275.516 C 0.000 276.571,0.116 276.991,0.406 276.991 C 0.827 276.991,1.180 278.218,1.180 279.683 C 1.180 280.149,1.438 280.789,1.754 281.105 C 2.070 281.421,2.473 282.216,2.649 282.870 C 2.826 283.525,3.220 284.195,3.526 284.358 C 3.832 284.522,4.166 285.039,4.269 285.507 C 4.589 286.965,9.747 291.935,11.252 292.236 C 11.716 292.328,12.094 292.511,12.094 292.641 C 12.094 293.191,13.039 293.747,14.292 293.935 C 15.170 294.067,15.634 294.283,15.634 294.561 C 15.634 294.794,15.909 294.985,16.246 294.985 C 17.391 294.985,16.757 293.983,15.336 293.545 C 13.979 293.128,13.767 293.026,12.242 292.052 C 8.890 289.911,7.225 288.415,5.760 286.230 C 5.126 285.286,4.319 284.181,3.965 283.776 C 3.612 283.370,3.242 282.606,3.143 282.077 C 3.044 281.548,2.708 280.752,2.396 280.307 C 2.084 279.862,1.747 278.901,1.648 278.171 C 1.117 274.268,0.000 272.468,0.000 275.516 M398.851 277.507 C 398.694 278.116,398.411 279.211,398.223 279.941 C 398.034 280.671,397.719 281.468,397.522 281.711 C 397.325 281.954,396.995 282.552,396.788 283.038 C 396.116 284.620,394.480 286.865,392.871 288.412 C 390.146 291.034,389.675 291.431,388.705 291.922 C 388.184 292.186,387.559 292.569,387.316 292.774 C 387.072 292.978,386.541 293.237,386.136 293.348 C 383.733 294.006,382.852 294.985,384.661 294.985 C 385.217 294.985,385.546 294.834,385.546 294.578 C 385.546 294.342,386.099 294.031,386.863 293.839 C 387.588 293.656,388.418 293.269,388.707 292.979 C 388.996 292.689,389.598 292.294,390.044 292.102 C 390.490 291.910,390.855 291.551,390.855 291.304 C 390.855 291.057,390.993 290.855,391.161 290.855 C 391.489 290.855,395.575 286.873,395.575 286.554 C 395.575 286.448,395.973 285.908,396.460 285.353 C 396.947 284.799,397.345 284.066,397.345 283.726 C 397.345 283.385,397.677 282.798,398.083 282.423 C 398.550 281.990,398.820 281.419,398.820 280.864 C 398.820 279.692,399.091 279.056,399.589 279.056 C 399.879 279.056,400.000 278.667,400.000 277.729 C 400.000 276.034,399.269 275.894,398.851 277.507 " stroke="none" fill="#a2b0bd" fill-rule="evenodd"></path></g></svg>